<svg width="24" height="24" viewBox="0 0 24 24" fill="none" xmlns="http://www.w3.org/2000/svg">
<mask id="path-2-inside-1_10716_547" fill="white">
<path d="M4 12C4 7.58172 7.58172 4 12 4C16.4183 4 20 7.58172 20 12C20 16.4183 16.4183 20 12 20C7.58172 20 4 16.4183 4 12Z"/>
</mask>
<path d="M12 18.5C8.41015 18.5 5.5 15.5898 5.5 12H2.5C2.5 17.2467 6.75329 21.5 12 21.5V18.5ZM18.5 12C18.5 15.5898 15.5898 18.5 12 18.5V21.5C17.2467 21.5 21.5 17.2467 21.5 12H18.5ZM12 5.5C15.5898 5.5 18.5 8.41015 18.5 12H21.5C21.5 6.75329 17.2467 2.5 12 2.5V5.5ZM12 2.5C6.75329 2.5 2.5 6.75329 2.5 12H5.5C5.5 8.41015 8.41015 5.5 12 5.5V2.5Z" fill="#303133" mask="url(#path-2-inside-1_10716_547)"/>
</svg>
